# Blender 4.4.3
# www.blender.org
mtllib beachball.mtl
o Icosphere
v 0.000000 0.000000 -1.000000
v -0.723607 0.525725 -0.447220
v 0.276388 0.850649 -0.447220
v 0.894426 0.000000 -0.447216
v 0.276388 -0.850649 -0.447220
v -0.723607 -0.525725 -0.447220
v -0.276388 0.850649 0.447220
v 0.723607 0.525725 0.447220
v 0.723607 -0.525725 0.447220
v -0.276388 -0.850649 0.447220
v -0.894426 0.000000 0.447216
v 0.000000 0.000000 1.000000
v 0.232822 0.716563 -0.657519
v 0.162456 0.499995 -0.850654
v 0.077607 0.238853 -0.967950
v -0.203181 0.147618 -0.967950
v -0.425323 0.309011 -0.850654
v -0.609547 0.442856 -0.657519
v -0.531941 0.681712 -0.502302
v -0.262869 0.809012 -0.525738
v 0.029639 0.864184 -0.502302
v -0.812729 -0.295238 -0.502301
v -0.850648 0.000000 -0.525736
v -0.812729 0.295238 -0.502301
v -0.203181 -0.147618 -0.967950
v -0.425323 -0.309011 -0.850654
v -0.609547 -0.442856 -0.657519
v 0.753442 0.000000 -0.657515
v 0.525730 0.000000 -0.850652
v 0.251147 0.000000 -0.967949
v 0.483971 0.716565 -0.502302
v 0.688189 0.499997 -0.525736
v 0.831051 0.238853 -0.502299
v 0.232822 -0.716563 -0.657519
v 0.162456 -0.499995 -0.850654
v 0.077607 -0.238853 -0.967950
v 0.831051 -0.238853 -0.502299
v 0.688189 -0.499997 -0.525736
v 0.483971 -0.716565 -0.502302
v 0.029639 -0.864184 -0.502302
v -0.262869 -0.809012 -0.525738
v -0.531941 -0.681712 -0.502302
v -0.956626 0.147618 0.251149
v -0.951058 0.309013 -0.000000
v -0.860698 0.442858 -0.251151
v -0.860698 -0.442858 -0.251151
v -0.951058 -0.309013 0.000000
v -0.956626 -0.147618 0.251149
v -0.155215 0.955422 0.251152
v 0.000000 1.000000 -0.000000
v 0.155215 0.955422 -0.251152
v -0.687159 0.681715 -0.251152
v -0.587786 0.809017 0.000000
v -0.436007 0.864188 0.251152
v 0.860698 0.442858 0.251151
v 0.951058 0.309013 -0.000000
v 0.956626 0.147618 -0.251149
v 0.436007 0.864188 -0.251152
v 0.587786 0.809017 0.000000
v 0.687159 0.681715 0.251152
v 0.687159 -0.681715 0.251152
v 0.587786 -0.809017 -0.000000
v 0.436007 -0.864188 -0.251152
v 0.956626 -0.147618 -0.251149
v 0.951058 -0.309013 0.000000
v 0.860698 -0.442858 0.251151
v -0.436007 -0.864188 0.251152
v -0.587786 -0.809017 -0.000000
v -0.687159 -0.681715 -0.251152
v 0.155215 -0.955422 -0.251152
v 0.000000 -1.000000 0.000000
v -0.155215 -0.955422 0.251152
v -0.831051 0.238853 0.502299
v -0.688189 0.499997 0.525736
v -0.483971 0.716565 0.502302
v -0.029639 0.864184 0.502302
v 0.262869 0.809012 0.525738
v 0.531941 0.681712 0.502302
v 0.812729 0.295238 0.502301
v 0.850648 0.000000 0.525736
v 0.812729 -0.295238 0.502301
v 0.531941 -0.681712 0.502302
v 0.262869 -0.809012 0.525738
v -0.029639 -0.864184 0.502302
v -0.483971 -0.716565 0.502302
v -0.688189 -0.499997 0.525736
v -0.831051 -0.238853 0.502299
v -0.077607 0.238853 0.967950
v -0.162456 0.499995 0.850654
v -0.232822 0.716563 0.657519
v -0.753442 0.000000 0.657515
v -0.525730 0.000000 0.850652
v -0.251147 0.000000 0.967949
v 0.203181 0.147618 0.967950
v 0.425323 0.309011 0.850654
v 0.609547 0.442856 0.657519
v 0.203181 -0.147618 0.967950
v 0.425323 -0.309011 0.850654
v 0.609547 -0.442856 0.657519
v -0.077607 -0.238853 0.967950
v -0.162456 -0.499995 0.850654
v -0.232822 -0.716563 0.657519
v -0.361800 -0.262863 0.894429
v -0.638194 -0.262864 0.723610
v -0.447209 -0.525728 0.723612
v 0.138197 -0.425319 0.894430
v 0.052790 -0.688185 0.723612
v 0.361804 -0.587778 0.723612
v 0.447210 0.000000 0.894429
v 0.670817 -0.162457 0.723611
v 0.670817 0.162457 0.723611
v 0.138197 0.425319 0.894430
v 0.361804 0.587778 0.723612
v 0.052790 0.688185 0.723612
v -0.361800 0.262863 0.894429
v -0.447209 0.525728 0.723612
v -0.638194 0.262864 0.723610
v -0.861804 -0.425322 0.276396
v -0.809019 -0.587782 0.000000
v -0.670821 -0.688189 0.276397
v 0.138199 -0.951055 0.276397
v 0.309016 -0.951057 -0.000000
v 0.447215 -0.850649 0.276397
v 0.947213 -0.162458 0.276396
v 1.000000 0.000000 0.000001
v 0.947213 0.162458 0.276397
v 0.447216 0.850648 0.276397
v 0.309017 0.951056 -0.000001
v 0.138199 0.951055 0.276397
v -0.670820 0.688190 0.276396
v -0.809019 0.587783 -0.000002
v -0.861804 0.425323 0.276394
v -0.309017 -0.951056 -0.000000
v -0.447216 -0.850648 -0.276398
v -0.138199 -0.951055 -0.276398
v 0.809018 -0.587783 -0.000000
v 0.670819 -0.688191 -0.276397
v 0.861803 -0.425324 -0.276396
v 0.809018 0.587783 0.000000
v 0.861803 0.425324 -0.276396
v 0.670819 0.688191 -0.276397
v -0.309017 0.951056 0.000000
v -0.138199 0.951055 -0.276398
v -0.447216 0.850648 -0.276398
v -1.000000 0.000000 0.000000
v -0.947213 0.162458 -0.276396
v -0.947213 -0.162458 -0.276396
v -0.361803 -0.587779 -0.723612
v -0.138197 -0.425321 -0.894429
v -0.052789 -0.688186 -0.723611
v 0.447211 -0.525727 -0.723612
v 0.361801 -0.262863 -0.894429
v 0.638195 -0.262863 -0.723609
v 0.638195 0.262864 -0.723609
v 0.361801 0.262864 -0.894428
v 0.447211 0.525729 -0.723610
v -0.670817 -0.162457 -0.723611
v -0.670818 0.162458 -0.723610
v -0.447211 0.000001 -0.894428
v -0.052790 0.688185 -0.723612
v -0.138199 0.425321 -0.894429
v -0.361805 0.587779 -0.723611
vn -0.0000 -0.0000 -1.0000
vn -0.7236 0.5257 -0.4472
vn 0.2764 0.8506 -0.4472
vn 0.8944 -0.0000 -0.4472
vn 0.2764 -0.8506 -0.4472
vn -0.7236 -0.5257 -0.4472
vn -0.2764 0.8506 0.4472
vn 0.7236 0.5257 0.4472
vn 0.7236 -0.5257 0.4472
vn -0.2764 -0.8506 0.4472
vn -0.8944 -0.0000 0.4472
vn -0.0000 -0.0000 1.0000
vn 0.2308 0.7103 -0.6650
vn 0.1625 0.5000 -0.8507
vn 0.0806 0.2480 -0.9654
vn -0.2110 0.1533 -0.9654
vn -0.4253 0.3090 -0.8507
vn -0.6042 0.4390 -0.6650
vn -0.5237 0.6870 -0.5038
vn -0.2629 0.8090 -0.5257
vn 0.0198 0.8636 -0.5038
vn -0.8152 -0.2857 -0.5038
vn -0.8506 -0.0000 -0.5257
vn -0.8152 0.2857 -0.5038
vn -0.2110 -0.1533 -0.9654
vn -0.4253 -0.3090 -0.8507
vn -0.6042 -0.4390 -0.6650
vn 0.7469 -0.0000 -0.6650
vn 0.5257 -0.0000 -0.8507
vn 0.2608 -0.0000 -0.9654
vn 0.4915 0.7103 -0.5038
vn 0.6882 0.5000 -0.5257
vn 0.8274 0.2480 -0.5038
vn 0.2308 -0.7103 -0.6650
vn 0.1625 -0.5000 -0.8507
vn 0.0806 -0.2480 -0.9654
vn 0.8274 -0.2480 -0.5038
vn 0.6882 -0.5000 -0.5257
vn 0.4915 -0.7103 -0.5038
vn 0.0198 -0.8636 -0.5038
vn -0.2629 -0.8090 -0.5257
vn -0.5237 -0.6870 -0.5038
vn -0.9578 0.1533 0.2431
vn -0.9511 0.3090 -0.0000
vn -0.8650 0.4390 -0.2431
vn -0.8650 -0.4390 -0.2431
vn -0.9511 -0.3090 -0.0000
vn -0.9578 -0.1533 0.2431
vn -0.1502 0.9583 0.2431
vn -0.0000 1.0000 -0.0000
vn 0.1502 0.9583 -0.2431
vn -0.6848 0.6870 -0.2431
vn -0.5878 0.8090 -0.0000
vn -0.4417 0.8636 0.2431
vn 0.8650 0.4390 0.2431
vn 0.9511 0.3090 -0.0000
vn 0.9578 0.1533 -0.2431
vn 0.4417 0.8636 -0.2431
vn 0.5878 0.8090 -0.0000
vn 0.6848 0.6870 0.2431
vn 0.6848 -0.6870 0.2431
vn 0.5878 -0.8090 -0.0000
vn 0.4417 -0.8636 -0.2431
vn 0.9578 -0.1533 -0.2431
vn 0.9511 -0.3090 -0.0000
vn 0.8650 -0.4390 0.2431
vn -0.4417 -0.8636 0.2431
vn -0.5878 -0.8090 -0.0000
vn -0.6848 -0.6870 -0.2431
vn 0.1502 -0.9583 -0.2431
vn -0.0000 -1.0000 -0.0000
vn -0.1502 -0.9583 0.2431
vn -0.8274 0.2480 0.5038
vn -0.6882 0.5000 0.5257
vn -0.4915 0.7103 0.5038
vn -0.0198 0.8636 0.5038
vn 0.2629 0.8090 0.5257
vn 0.5237 0.6870 0.5038
vn 0.8152 0.2857 0.5038
vn 0.8506 -0.0000 0.5257
vn 0.8152 -0.2857 0.5038
vn 0.5237 -0.6870 0.5038
vn 0.2629 -0.8090 0.5257
vn -0.0198 -0.8636 0.5038
vn -0.4915 -0.7103 0.5038
vn -0.6882 -0.5000 0.5257
vn -0.8274 -0.2480 0.5038
vn -0.0806 0.2480 0.9654
vn -0.1625 0.5000 0.8507
vn -0.2308 0.7103 0.6650
vn -0.7469 -0.0000 0.6650
vn -0.5257 -0.0000 0.8507
vn -0.2607 -0.0000 0.9654
vn 0.2110 0.1533 0.9654
vn 0.4253 0.3090 0.8507
vn 0.6042 0.4390 0.6650
vn 0.2110 -0.1533 0.9654
vn 0.4253 -0.3090 0.8507
vn 0.6042 -0.4390 0.6650
vn -0.0806 -0.2480 0.9654
vn -0.1625 -0.5000 0.8507
vn -0.2308 -0.7103 0.6650
vn -0.3682 -0.2675 0.8904
vn -0.6317 -0.2675 0.7275
vn -0.4496 -0.5182 0.7276
vn 0.1406 -0.4329 0.8904
vn 0.0592 -0.6835 0.7276
vn 0.3539 -0.5878 0.7276
vn 0.4551 -0.0000 0.8904
vn 0.6683 -0.1549 0.7276
vn 0.6683 0.1549 0.7276
vn 0.1406 0.4329 0.8904
vn 0.3539 0.5878 0.7276
vn 0.0592 0.6835 0.7276
vn -0.3682 0.2675 0.8904
vn -0.4496 0.5182 0.7276
vn -0.6317 0.2675 0.7275
vn -0.8593 -0.4329 0.2724
vn -0.8090 -0.5878 0.0089
vn -0.6772 -0.6835 0.2724
vn 0.1461 -0.9510 0.2724
vn 0.3090 -0.9510 0.0089
vn 0.4408 -0.8553 0.2724
vn 0.9496 -0.1549 0.2724
vn 1.0000 -0.0000 0.0089
vn 0.9496 0.1549 0.2724
vn 0.4408 0.8553 0.2724
vn 0.3090 0.9510 0.0089
vn 0.1461 0.9510 0.2724
vn -0.6772 0.6835 0.2724
vn -0.8090 0.5878 0.0089
vn -0.8593 0.4329 0.2724
vn -0.3090 -0.9510 -0.0089
vn -0.4408 -0.8553 -0.2724
vn -0.1461 -0.9510 -0.2724
vn 0.8090 -0.5878 -0.0089
vn 0.6772 -0.6835 -0.2724
vn 0.8593 -0.4329 -0.2724
vn 0.8090 0.5878 -0.0089
vn 0.8593 0.4329 -0.2724
vn 0.6772 0.6835 -0.2724
vn -0.3090 0.9510 -0.0089
vn -0.1461 0.9510 -0.2724
vn -0.4408 0.8553 -0.2724
vn -1.0000 -0.0000 -0.0089
vn -0.9496 0.1549 -0.2724
vn -0.9496 -0.1549 -0.2724
vn -0.3539 -0.5878 -0.7276
vn -0.1406 -0.4329 -0.8904
vn -0.0592 -0.6835 -0.7276
vn 0.4496 -0.5182 -0.7276
vn 0.3682 -0.2675 -0.8904
vn 0.6317 -0.2675 -0.7275
vn 0.6317 0.2675 -0.7275
vn 0.3682 0.2675 -0.8904
vn 0.4496 0.5182 -0.7275
vn -0.6683 -0.1549 -0.7275
vn -0.6683 0.1549 -0.7275
vn -0.4551 -0.0000 -0.8904
vn -0.0592 0.6835 -0.7276
vn -0.1406 0.4329 -0.8904
vn -0.3539 0.5878 -0.7276
vt 0.775083 0.536245
vt 0.780241 0.589983
vt 0.727556 0.554511
vt 0.460955 0.591541
vt 0.479380 0.639205
vt 0.419447 0.616607
vt 0.742924 0.492883
vt 0.805108 0.490270
vt 0.828171 0.550280
vt 0.418911 0.556147
vt 0.037736 0.202233
vt 0.000000 0.212927
vt 0.014711 0.154697
vt 0.259723 0.258316
vt 0.209068 0.253915
vt 0.253872 0.207808
vt 0.213059 0.646571
vt 0.157984 0.648778
vt 0.194373 0.604427
vt 0.538903 0.304206
vt 0.490728 0.325859
vt 0.498087 0.273884
vt 0.478513 0.541379
vt 0.066875 0.160565
vt 0.302563 0.227421
vt 0.254957 0.612214
vt 0.560419 0.258136
vt 0.543625 0.380996
vt 0.488550 0.378789
vt 0.526644 0.343593
vt 0.987642 0.765032
vt 0.984162 0.817464
vt 0.947540 0.768953
vt 0.130390 0.436026
vt 0.088882 0.410960
vt 0.148814 0.388362
vt 0.379338 0.139999
vt 0.341602 0.129306
vt 0.384674 0.087451
vt 0.601325 0.083916
vt 0.550670 0.088317
vt 0.571670 0.040209
vt 0.742924 0.849349
vt 0.727556 0.787722
vt 0.775083 0.805988
vt 0.712170 0.898450
vt 0.689263 0.834327
vt 0.509621 0.043885
vt 0.531450 0.000000
vt 0.680000 0.769445
vt 0.661131 0.884838
vt 0.441024 0.061216
vt 0.464136 0.008271
vt 0.400970 0.032965
vt 0.487489 0.100707
vt 0.426005 0.119813
vt 0.780242 0.752250
vt 0.730331 0.727467
vt 0.348137 0.071663
vt 0.790287 0.695190
vt 0.685286 0.710155
vt 0.279398 0.393399
vt 0.212725 0.384830
vt 0.239224 0.342233
vt 0.743268 0.671117
vt 0.172735 0.342233
vt 0.330566 0.411721
vt 0.306486 0.450428
vt 0.249150 0.439557
vt 0.185319 0.434855
vt 0.828171 0.791953
vt 0.841060 0.732123
vt 0.106594 0.358533
vt 0.890618 0.778301
vt 0.853997 0.675773
vt 0.906744 0.719467
vt 0.047277 0.389537
vt 0.915225 0.671117
vt 0.959295 0.717749
vt 0.249980 0.041855
vt 0.197301 0.038027
vt 0.206909 -0.000000
vt 0.805108 0.851963
vt 0.868426 0.841860
vt 0.934110 0.829204
vt 0.842340 0.903922
vt 0.908729 0.895248
vt 0.878351 0.948986
vt 0.967279 0.879850
vt 0.938036 0.937486
vt 0.905507 0.978754
vt 0.774610 0.905026
vt 0.814913 0.958414
vt 0.746479 0.955537
vt 0.691800 0.941143
vt 0.852789 0.994884
vt 0.425312 0.387714
vt 0.463039 0.342233
vt 0.788830 1.000000
vt 0.728421 0.989655
vt 0.596325 0.008960
vt 0.629453 0.056582
vt 0.595474 0.134425
vt 0.581279 0.197224
vt 0.535818 0.147572
vt 0.516529 0.215646
vt 0.467220 0.164903
vt 0.450798 0.230190
vt 0.408477 0.181668
vt 0.356313 0.187536
vt 0.297742 0.563313
vt 0.278445 0.501059
vt 0.329700 0.509548
vt 0.237317 0.557552
vt 0.211771 0.492489
vt 0.170920 0.547013
vt 0.147947 0.486188
vt 0.088345 0.471420
vt 0.046154 0.516098
vt 0.040047 0.449939
vt 0.297109 0.165503
vt 0.341602 0.186065
vt 0.000000 0.498748
vt 0.277820 0.097429
vt 0.331405 0.119014
vt 0.304911 0.056582
vt 0.239677 0.145008
vt 0.218817 0.084097
vt 0.156485 0.068349
vt 0.149126 0.016374
vt 0.109196 0.112043
vt 0.098229 0.052056
vt 0.048920 0.102799
vt 0.093791 0.003243
vt 0.040821 0.045599
vt 0.986878 0.925282
vt -0.000000 0.099761
vt 0.628308 0.464255
vt 0.585523 0.415354
vt 0.635717 0.407342
vt 0.586577 0.366191
vt 0.524939 0.423140
vt 0.501486 0.480554
vt 0.461162 0.429776
vt 0.435616 0.494838
vt 0.395569 0.446029
vt 0.369346 0.408327
vt 0.376720 0.511469
vt 0.346133 0.467445
vt 0.644165 0.114812
vt 0.390523 0.239434
vt 0.439831 0.290177
vt 0.341602 0.242472
vt 0.382424 0.296634
vt 0.305151 0.620226
vt 0.435393 0.338990
vt 0.967279 0.462383
vt 0.938037 0.404747
vt 0.986878 0.416952
vt 0.256011 0.661376
vt 0.105050 0.532729
vt 0.130596 0.597792
vt 0.065003 0.581538
vt 0.015567 0.560121
vt 0.094746 0.639853
vt 0.038780 0.619240
vt 0.287851 0.285650
vt 0.174926 0.126587
vt 0.194216 0.194660
vt 0.125618 0.177330
vt 0.145887 0.241526
vt 0.084403 0.222420
vt 0.567883 0.470016
vt 0.660265 0.518020
vt 0.609011 0.526509
vt 0.542336 0.535078
vt 0.637052 0.577139
vt 0.579715 0.588010
vt 0.515884 0.592712
vt 0.683204 0.156168
vt 0.638711 0.176730
vt 0.370612 0.577628
vt 0.330566 0.528819
vt 0.673007 0.223219
vt 0.619422 0.244803
vt 0.377843 0.638030
vt 0.646513 0.285651
vt 0.591582 0.300378
vt 0.947540 0.573281
vt 0.984162 0.524769
vt 0.987642 0.577201
vt 0.890618 0.563932
vt 0.934110 0.513029
vt 0.868426 0.500373
vt 0.908729 0.446985
vt 0.842340 0.438310
vt 0.878352 0.393247
vt 0.905507 0.363479
vt 0.196078 0.683974
vt 0.814913 0.383819
vt 0.774610 0.437206
vt 0.852789 0.347349
vt 0.132473 0.685334
vt 0.746478 0.386696
vt 0.788830 0.342233
vt 0.728421 0.352578
vt 0.712170 0.443782
vt 0.691800 0.401090
vt 0.254722 0.333272
vt 0.230068 0.302024
vt 0.189848 0.342233
vt 0.168020 0.298347
vt 0.689263 0.507905
vt 0.661131 0.457395
vt 0.122534 0.333961
vt 0.099422 0.281017
vt 0.680000 0.572788
vt 0.059368 0.309268
vt 0.043072 0.254782
vt 0.548511 0.342233
vt 0.915225 0.671116
vt 0.906744 0.622766
vt 0.959295 0.624484
vt 0.437159 0.669034
vt 0.853996 0.666461
vt 0.841060 0.610110
vt 0.503300 0.685334
vt 0.790286 0.647043
vt 0.006535 0.270569
vt 0.730331 0.614766
vt 0.661131 0.615846
vt 0.609963 0.634168
vt 0.685286 0.632078
vt 0.569789 0.685334
vt 0.543290 0.642737
vt 0.743268 0.671116
s 1
usemtl Material.001
f 1/1/1 16/2/16 15/3/15
f 2/4/2 18/5/18 24/6/24
f 1/1/1 15/3/15 30/7/30
f 1/1/1 30/7/30 36/8/36
f 1/1/1 36/8/36 25/9/25
f 2/4/2 24/6/24 45/10/45
f 3/11/3 21/12/21 51/13/51
f 4/14/4 33/15/33 57/16/57
f 5/17/5 39/18/39 63/19/63
f 6/20/6 42/21/42 69/22/69
f 2/4/2 45/10/45 52/23/52
f 3/11/3 51/13/51 58/24/58
f 4/14/4 57/16/57 64/25/64
f 5/17/5 63/19/63 70/26/70
f 6/20/6 69/22/69 46/27/46
f 7/28/7 75/29/75 90/30/90
f 8/31/8 78/32/78 96/33/96
f 9/34/9 81/35/81 99/36/99
f 10/37/10 84/38/84 102/39/102
f 11/40/11 87/41/87 91/42/91
f 93/43/93 100/44/100 12/45/12
f 92/46/92 103/47/103 93/43/93
f 91/42/91 104/48/104 92/49/92
f 93/43/93 103/47/103 100/44/100
f 103/47/103 101/50/101 100/44/100
f 92/46/92 104/51/104 103/47/103
f 104/48/104 105/52/105 103/53/103
f 103/53/103 105/52/105 101/54/101
f 105/52/105 102/39/102 101/54/101
f 91/42/91 87/41/87 104/48/104
f 87/41/87 86/55/86 104/48/104
f 104/48/104 86/55/86 105/52/105
f 86/55/86 85/56/85 105/52/105
f 105/52/105 85/56/85 102/39/102
f 85/56/85 10/37/10 102/39/102
f 100/44/100 97/57/97 12/45/12
f 101/50/101 106/58/106 100/44/100
f 102/39/102 107/59/107 101/54/101
f 100/44/100 106/58/106 97/57/97
f 106/58/106 98/60/98 97/57/97
f 101/50/101 107/61/107 106/58/106
f 107/62/107 108/63/108 106/64/106
f 106/58/106 108/65/108 98/60/98
f 108/63/108 99/36/99 98/66/98
f 102/67/102 84/68/84 107/62/107
f 84/68/84 83/69/83 107/62/107
f 107/62/107 83/69/83 108/63/108
f 83/69/83 82/70/82 108/63/108
f 108/63/108 82/70/82 99/36/99
f 82/70/82 9/34/9 99/36/99
f 97/57/97 94/71/94 12/45/12
f 98/60/98 109/72/109 97/57/97
f 99/36/99 110/73/110 98/66/98
f 97/57/97 109/72/109 94/71/94
f 109/72/109 95/74/95 94/71/94
f 98/60/98 110/75/110 109/72/109
f 110/75/110 111/76/111 109/72/109
f 109/72/109 111/76/111 95/74/95
f 111/76/111 96/33/96 95/74/95
f 99/36/99 81/35/81 110/73/110
f 81/35/81 80/77/80 110/73/110
f 110/75/110 80/78/80 111/76/111
f 80/78/80 79/79/79 111/76/111
f 111/76/111 79/79/79 96/33/96
f 79/80/79 8/81/8 96/82/96
f 94/71/94 88/83/88 12/45/12
f 95/74/95 112/84/112 94/71/94
f 96/33/96 113/85/113 95/74/95
f 94/71/94 112/84/112 88/83/88
f 112/84/112 89/86/89 88/83/88
f 95/74/95 113/85/113 112/84/112
f 113/85/113 114/87/114 112/84/112
f 112/84/112 114/87/114 89/86/89
f 114/87/114 90/88/90 89/86/89
f 96/33/96 78/32/78 113/85/113
f 78/32/78 77/89/77 113/85/113
f 113/85/113 77/89/77 114/87/114
f 77/89/77 76/90/76 114/87/114
f 114/87/114 76/90/76 90/88/90
f 76/90/76 7/91/7 90/88/90
f 88/83/88 93/43/93 12/45/12
f 89/86/89 115/92/115 88/83/88
f 90/88/90 116/93/116 89/86/89
f 88/83/88 115/92/115 93/43/93
f 115/92/115 92/46/92 93/43/93
f 89/86/89 116/93/116 115/92/115
f 116/93/116 117/94/117 115/92/115
f 115/92/115 117/94/117 92/46/92
f 117/94/117 91/95/91 92/46/92
f 90/88/90 75/96/75 116/93/116
f 75/29/75 74/97/74 116/98/116
f 116/93/116 74/99/74 117/94/117
f 74/99/74 73/100/73 117/94/117
f 117/101/117 73/102/73 91/42/91
f 73/102/73 11/40/11 91/42/91
f 48/103/48 87/41/87 11/40/11
f 47/104/47 118/105/118 48/103/48
f 46/27/46 119/106/119 47/104/47
f 48/103/48 118/105/118 87/41/87
f 118/105/118 86/55/86 87/41/87
f 47/104/47 119/106/119 118/105/118
f 119/106/119 120/107/120 118/105/118
f 118/105/118 120/107/120 86/55/86
f 120/107/120 85/56/85 86/55/86
f 46/27/46 69/22/69 119/106/119
f 69/22/69 68/108/68 119/106/119
f 119/106/119 68/108/68 120/107/120
f 68/108/68 67/109/67 120/107/120
f 120/107/120 67/109/67 85/56/85
f 67/109/67 10/37/10 85/56/85
f 72/110/72 84/38/84 10/37/10
f 71/111/71 121/112/121 72/113/72
f 70/26/70 122/114/122 71/111/71
f 72/113/72 121/112/121 84/68/84
f 121/112/121 83/69/83 84/68/84
f 71/111/71 122/114/122 121/112/121
f 122/114/122 123/115/123 121/112/121
f 121/112/121 123/115/123 83/69/83
f 123/115/123 82/70/82 83/69/83
f 70/26/70 63/19/63 122/114/122
f 63/19/63 62/116/62 122/114/122
f 122/114/122 62/116/62 123/115/123
f 62/116/62 61/117/61 123/115/123
f 123/115/123 61/117/61 82/70/82
f 61/117/61 9/34/9 82/70/82
f 66/118/66 81/35/81 9/34/9
f 65/119/65 124/120/124 66/118/66
f 64/25/64 125/121/125 65/122/65
f 66/118/66 124/120/124 81/35/81
f 124/120/124 80/77/80 81/35/81
f 65/119/65 125/123/125 124/120/124
f 125/121/125 126/124/126 124/125/124
f 124/125/124 126/124/126 80/126/80
f 126/124/126 79/80/79 80/126/80
f 64/25/64 57/16/57 125/121/125
f 57/16/57 56/127/56 125/121/125
f 125/121/125 56/127/56 126/124/126
f 56/127/56 55/128/55 126/124/126
f 126/124/126 55/128/55 79/80/79
f 55/128/55 8/81/8 79/80/79
f 60/129/60 78/130/78 8/81/8
f 59/131/59 127/132/127 60/129/60
f 58/24/58 128/133/128 59/131/59
f 60/129/60 127/132/127 78/130/78
f 127/132/127 77/134/77 78/130/78
f 59/131/59 128/133/128 127/132/127
f 128/133/128 129/135/129 127/132/127
f 127/132/127 129/135/129 77/134/77
f 129/136/129 76/90/76 77/89/77
f 58/24/58 51/13/51 128/133/128
f 51/13/51 50/137/50 128/133/128
f 128/133/128 50/137/50 129/135/129
f 50/138/50 49/139/49 129/140/129
f 129/140/129 49/139/49 76/141/76
f 49/139/49 7/28/7 76/141/76
f 54/142/54 75/29/75 7/28/7
f 53/143/53 130/144/130 54/142/54
f 52/23/52 131/145/131 53/143/53
f 54/142/54 130/144/130 75/29/75
f 130/144/130 74/97/74 75/29/75
f 53/143/53 131/145/131 130/144/130
f 131/145/131 132/146/132 130/144/130
f 130/144/130 132/146/132 74/97/74
f 132/146/132 73/147/73 74/97/74
f 52/23/52 45/10/45 131/145/131
f 45/10/45 44/148/44 131/145/131
f 131/145/131 44/148/44 132/146/132
f 44/148/44 43/149/43 132/146/132
f 132/146/132 43/149/43 73/147/73
f 43/150/43 11/40/11 73/102/73
f 67/109/67 72/110/72 10/37/10
f 68/108/68 133/151/133 67/109/67
f 69/22/69 134/152/134 68/108/68
f 67/109/67 133/151/133 72/110/72
f 133/151/133 71/153/71 72/110/72
f 68/108/68 134/152/134 133/151/133
f 134/152/134 135/154/135 133/151/133
f 133/151/133 135/154/135 71/153/71
f 135/155/135 70/26/70 71/111/71
f 69/22/69 42/21/42 134/152/134
f 42/21/42 41/156/41 134/152/134
f 134/152/134 41/156/41 135/154/135
f 41/157/41 40/158/40 135/159/135
f 135/155/135 40/160/40 70/26/70
f 40/160/40 5/17/5 70/26/70
f 61/117/61 66/118/66 9/34/9
f 62/116/62 136/161/136 61/117/61
f 63/19/63 137/162/137 62/116/62
f 61/117/61 136/161/136 66/118/66
f 136/161/136 65/119/65 66/118/66
f 62/116/62 137/162/137 136/161/136
f 137/162/137 138/163/138 136/161/136
f 136/161/136 138/163/138 65/119/65
f 138/163/138 64/164/64 65/119/65
f 63/19/63 39/18/39 137/162/137
f 39/18/39 38/165/38 137/162/137
f 137/162/137 38/165/38 138/163/138
f 38/165/38 37/166/37 138/163/138
f 138/163/138 37/166/37 64/164/64
f 37/167/37 4/14/4 64/25/64
f 55/128/55 60/129/60 8/81/8
f 56/127/56 139/168/139 55/128/55
f 57/16/57 140/169/140 56/127/56
f 55/128/55 139/168/139 60/129/60
f 139/168/139 59/131/59 60/129/60
f 56/127/56 140/169/140 139/168/139
f 140/169/140 141/170/141 139/168/139
f 139/168/139 141/170/141 59/131/59
f 141/170/141 58/24/58 59/131/59
f 57/16/57 33/15/33 140/169/140
f 33/15/33 32/171/32 140/169/140
f 140/169/140 32/171/32 141/170/141
f 32/171/32 31/172/31 141/170/141
f 141/170/141 31/172/31 58/24/58
f 31/172/31 3/11/3 58/24/58
f 49/139/49 54/142/54 7/28/7
f 50/138/50 142/173/142 49/139/49
f 51/174/51 143/175/143 50/138/50
f 49/139/49 142/173/142 54/142/54
f 142/173/142 53/143/53 54/142/54
f 50/138/50 143/175/143 142/173/142
f 143/175/143 144/176/144 142/173/142
f 142/173/142 144/176/144 53/143/53
f 144/176/144 52/23/52 53/143/53
f 51/174/51 21/177/21 143/175/143
f 21/177/21 20/178/20 143/175/143
f 143/175/143 20/178/20 144/176/144
f 20/178/20 19/179/19 144/176/144
f 144/176/144 19/179/19 52/23/52
f 19/179/19 2/4/2 52/23/52
f 43/150/43 48/103/48 11/40/11
f 44/180/44 145/181/145 43/150/43
f 45/10/45 146/182/146 44/148/44
f 43/150/43 145/181/145 48/103/48
f 145/181/145 47/104/47 48/103/48
f 44/148/44 146/182/146 145/183/145
f 146/184/146 147/185/147 145/181/145
f 145/181/145 147/185/147 47/104/47
f 147/185/147 46/27/46 47/104/47
f 45/10/45 24/6/24 146/182/146
f 24/6/24 23/186/23 146/182/146
f 146/184/146 23/187/23 147/185/147
f 23/187/23 22/188/22 147/185/147
f 147/185/147 22/188/22 46/27/46
f 22/188/22 6/20/6 46/27/46
f 27/189/27 42/190/42 6/191/6
f 26/192/26 148/193/148 27/189/27
f 25/9/25 149/194/149 26/192/26
f 27/189/27 148/193/148 42/190/42
f 148/193/148 41/157/41 42/190/42
f 26/192/26 149/194/149 148/193/148
f 149/194/149 150/195/150 148/193/148
f 148/193/148 150/195/150 41/157/41
f 150/195/150 40/158/40 41/157/41
f 25/9/25 36/8/36 149/194/149
f 36/8/36 35/196/35 149/194/149
f 149/194/149 35/196/35 150/195/150
f 35/196/35 34/197/34 150/195/150
f 150/195/150 34/197/34 40/158/40
f 34/197/34 5/198/5 40/158/40
f 34/199/34 39/18/39 5/17/5
f 35/196/35 151/200/151 34/197/34
f 36/8/36 152/201/152 35/196/35
f 34/197/34 151/200/151 39/202/39
f 151/203/151 38/165/38 39/18/39
f 35/196/35 152/201/152 151/200/151
f 152/201/152 153/204/153 151/200/151
f 151/200/151 153/204/153 38/205/38
f 153/204/153 37/206/37 38/205/38
f 36/8/36 30/7/30 152/201/152
f 30/7/30 29/207/29 152/201/152
f 152/201/152 29/207/29 153/204/153
f 29/207/29 28/208/28 153/204/153
f 153/209/153 28/210/28 37/167/37
f 28/210/28 4/14/4 37/167/37
f 28/210/28 33/15/33 4/14/4
f 29/211/29 154/212/154 28/210/28
f 30/7/30 155/213/155 29/207/29
f 28/210/28 154/212/154 33/15/33
f 154/212/154 32/171/32 33/15/33
f 29/207/29 155/213/155 154/214/154
f 155/215/155 156/216/156 154/212/154
f 154/212/154 156/216/156 32/171/32
f 156/216/156 31/172/31 32/171/32
f 30/7/30 15/3/15 155/213/155
f 15/3/15 14/217/14 155/213/155
f 155/215/155 14/218/14 156/216/156
f 14/218/14 13/219/13 156/216/156
f 156/216/156 13/219/13 31/172/31
f 13/219/13 3/11/3 31/172/31
f 22/188/22 27/220/27 6/20/6
f 23/221/23 157/222/157 22/223/22
f 24/6/24 158/224/158 23/186/23
f 22/223/22 157/222/157 27/189/27
f 157/222/157 26/192/26 27/189/27
f 23/221/23 158/225/158 157/222/157
f 158/225/158 159/226/159 157/222/157
f 157/222/157 159/226/159 26/192/26
f 159/226/159 25/9/25 26/192/26
f 24/6/24 18/5/18 158/224/158
f 18/5/18 17/227/17 158/224/158
f 158/225/158 17/228/17 159/226/159
f 17/228/17 16/2/16 159/226/159
f 159/226/159 16/2/16 25/9/25
f 16/2/16 1/1/1 25/9/25
f 13/219/13 21/12/21 3/11/3
f 14/218/14 160/229/160 13/219/13
f 15/3/15 161/230/161 14/217/14
f 13/231/13 160/232/160 21/177/21
f 160/232/160 20/178/20 21/177/21
f 14/217/14 161/230/161 160/233/160
f 161/234/161 162/235/162 160/232/160
f 160/232/160 162/235/162 20/178/20
f 162/235/162 19/179/19 20/178/20
f 15/3/15 16/2/16 161/230/161
f 16/2/16 17/228/17 161/230/161
f 161/230/161 17/228/17 162/236/162
f 17/227/17 18/5/18 162/235/162
f 162/235/162 18/5/18 19/179/19
f 18/5/18 2/4/2 19/179/19
